<mxfile host="app.diagrams.net" modified="2024-01-14T14:44:56.607Z" agent="Mozilla/5.0 (Macintosh; Intel Mac OS X 10_15_7) AppleWebKit/537.36 (KHTML, like Gecko) Chrome/120.0.0.0 Safari/537.36" etag="spGTLRWhbmJYrgDxT30E" version="22.1.18" type="github">
  <diagram name="Страница — 1" id="orSnIrgZEjD2RHA3vRJa">
    <mxGraphModel dx="899" dy="581" grid="1" gridSize="10" guides="1" tooltips="1" connect="1" arrows="1" fold="1" page="1" pageScale="1" pageWidth="827" pageHeight="1169" math="0" shadow="0">
      <root>
        <mxCell id="0" />
        <mxCell id="1" parent="0" />
        <mxCell id="plhUBj1jT_ljwHA84BcP-1" value="&lt;font style=&quot;&quot;&gt;&lt;b&gt;&lt;font style=&quot;font-size: 19px;&quot;&gt;StoreTask&lt;/font&gt;&lt;br&gt;&lt;br&gt;&lt;ul&gt;&lt;li&gt;&lt;font style=&quot;&quot;&gt;&lt;font style=&quot;font-size: 13px;&quot;&gt;rawValue: Task&amp;lt;Void, Never&amp;gt;?&lt;/font&gt;&lt;/font&gt;&lt;/li&gt;&lt;li&gt;&lt;span style=&quot;font-size: 13px;&quot;&gt;cancelTask&lt;/span&gt;&lt;/li&gt;&lt;li&gt;isCanceled&lt;/li&gt;&lt;li&gt;finish -&amp;gt; rawValue.cancellableValue&amp;nbsp;&lt;br&gt;&lt;/li&gt;&lt;/ul&gt;&lt;/b&gt;&lt;/font&gt;" style="rounded=0;whiteSpace=wrap;html=1;" vertex="1" parent="1">
          <mxGeometry x="351" y="60" width="369" height="200" as="geometry" />
        </mxCell>
      </root>
    </mxGraphModel>
  </diagram>
</mxfile>
